<?xml version="1.0" encoding="utf-8"?>
<svg viewBox="22.747 28.773 67.943 8.858" xmlns="http://www.w3.org/2000/svg">
  <defs>
    <linearGradient id="B" spreadMethod="pad" gradientUnits="userSpaceOnUse" y2="790.912" x2="536.264" y1="550.499" x1="682.17">
      <stop offset="0" stop-color="#4f66b9"/>
      <stop offset="1" stop-color="#484fab"/>
    </linearGradient>
    <clipPath id="A">
      <path d="M525.438 782.113h33.964V681.938l97.8 100.175h44.836l-107.312-110.37 114.097-127.355H665.36l-105.957 118.86v-118.86H525.44z"/>
    </clipPath>
    <linearGradient id="D" spreadMethod="pad" gradientUnits="userSpaceOnUse" y2="1086.135" x2="677.091" y1="516.667" x1="1007.83">
      <stop offset="0" stop-color="#4f66b9"/>
      <stop offset="1" stop-color="#484fab"/>
    </linearGradient>
    <clipPath id="C">
      <path d="M631.824 876.457l167.266-96.57a9.24 9.24 0 0 0 4.609-7.989V578.754c0-3.293 1.77-6.34 4.62-7.988l149.266-86.184c6.152-3.555 13.84.9 13.84 7.988v376.172c0 3.293-1.758 6.336-4.6 7.988l-325.76 188.08c-6.153 3.55-13.852-.9-13.852-8V884.445c0-3.3 1.762-6.336 4.62-7.988z"/>
    </clipPath>
    <linearGradient id="F" spreadMethod="pad" gradientUnits="userSpaceOnUse" y2="920.709" x2="318.474" y1="284.03" x1="679.093">
      <stop offset="0" stop-color="#4c68bb"/>
      <stop offset="1" stop-color="#5180c9"/>
    </linearGradient>
    <clipPath id="E">
      <path d="M775.75 530.344l-167.266-96.57c-2.85-1.652-6.375-1.652-9.226 0L408.652 543.82a9.26 9.26 0 0 0-4.62 8v220.097a9.25 9.25 0 0 0 4.621 7.989L575.92 876.47a9.22 9.22 0 0 1 4.617 7.984v172.367c0 7.1-7.695 11.54-13.847 8L240.926 876.73c-2.852-1.652-4.6-4.695-4.6-7.988v-413.77c0-3.3 1.758-6.336 4.6-8L599.258 240.1c2.85-1.653 6.375-1.653 9.226 0l325.762 188.074c6.152 3.554 6.152 12.433 0 15.984L784.98 530.344c-2.863 1.652-6.378 1.652-9.23 0z"/>
    </clipPath>
  </defs>
  <g transform="matrix(1, 0, 0, 1, -34.728973388671875, -15.723748207092287)">
    <path d="M 68.252 49.778 L 70.675 49.778 L 69.458 46.253 L 68.252 49.778 Z M 71.622 52.675 L 70.982 50.758 L 67.932 50.758 L 67.315 52.675 L 65.97 52.675 L 68.762 45.041 L 70.216 45.041 L 72.966 52.675 L 71.622 52.675 M 80.722 52.675 L 80.722 48.875 C 80.722 48.537 80.656 48.295 80.524 48.148 C 80.392 48.001 80.174 47.928 79.874 47.928 C 79.646 47.928 79.404 47.966 79.147 48.043 C 78.911 48.111 78.685 48.209 78.475 48.335 L 78.475 52.675 L 77.175 52.675 L 77.175 48.875 C 77.175 48.537 77.109 48.295 76.977 48.148 C 76.845 48.001 76.627 47.928 76.327 47.928 C 76.094 47.931 75.862 47.966 75.639 48.033 C 75.393 48.102 75.157 48.204 74.939 48.336 L 74.939 52.676 L 73.639 52.676 L 73.639 47.07 L 74.719 47.07 L 74.839 47.632 C 75.206 47.382 75.553 47.199 75.879 47.082 C 76.195 46.967 76.529 46.907 76.865 46.906 C 77.548 46.906 78.018 47.159 78.265 47.666 C 79 47.159 79.705 46.906 80.38 46.906 C 80.9 46.906 81.305 47.046 81.592 47.33 C 81.879 47.614 82.022 48.022 82.022 48.56 L 82.022 52.68 L 80.722 52.68 M 85.13 51.914 C 85.338 51.914 85.556 51.869 85.785 51.776 C 86.026 51.678 86.251 51.543 86.451 51.376 L 86.451 50.318 C 86.071 50.238 85.735 50.198 85.451 50.198 C 84.706 50.198 84.334 50.495 84.334 51.09 C 84.334 51.347 84.404 51.547 84.549 51.69 C 84.694 51.833 84.889 51.905 85.149 51.905 L 85.13 51.914 Z M 86.616 52.674 L 86.516 52.134 C 86.262 52.353 85.974 52.528 85.663 52.652 C 85.35 52.777 85.04 52.839 84.733 52.839 C 84.219 52.839 83.803 52.685 83.483 52.376 C 83.163 52.067 83.003 51.676 83.003 51.176 C 83.003 50.633 83.199 50.2 83.603 49.876 C 84.007 49.552 84.523 49.391 85.183 49.391 C 85.583 49.391 85.998 49.446 86.461 49.556 L 86.461 48.906 C 86.461 48.531 86.381 48.271 86.219 48.124 C 86.057 47.977 85.775 47.904 85.371 47.904 C 84.798 47.904 84.141 48.024 83.399 48.267 L 83.399 47.353 C 83.675 47.213 84.014 47.103 84.414 47.023 C 84.811 46.943 85.214 46.903 85.619 46.903 C 86.352 46.903 86.892 47.05 87.239 47.343 C 87.586 47.636 87.761 48.096 87.761 48.72 L 87.761 52.675 L 86.626 52.675 M 88.596 52.675 L 88.596 51.715 L 91.726 48.058 L 88.7 48.058 L 88.7 47.058 L 93.117 47.058 L 93.117 48.016 L 89.989 51.673 L 93.151 51.673 L 93.151 52.673 L 88.6 52.673 M 96.408 51.815 C 97.333 51.815 97.796 51.165 97.796 49.865 C 97.796 48.573 97.333 47.927 96.408 47.927 C 95.483 47.927 95.02 48.573 95.02 49.865 C 95.02 51.165 95.483 51.815 96.408 51.815 Z M 96.408 52.84 C 95.556 52.84 94.891 52.578 94.414 52.052 C 93.937 51.526 93.7 50.8 93.7 49.865 C 93.7 48.93 93.938 48.205 94.416 47.685 C 94.894 47.165 95.558 46.903 96.41 46.903 C 97.262 46.903 97.926 47.163 98.404 47.685 C 98.882 48.207 99.12 48.935 99.12 49.865 C 99.12 50.795 98.88 51.527 98.404 52.052 C 97.928 52.577 97.262 52.84 96.41 52.84 M 103.91 52.675 L 103.91 48.963 C 103.91 48.603 103.837 48.341 103.69 48.175 C 103.543 48.009 103.308 47.927 102.985 47.927 C 102.5 47.927 102.005 48.087 101.498 48.411 L 101.498 52.674 L 100.198 52.674 L 100.198 47.067 L 101.278 47.067 L 101.41 47.684 C 102.11 47.164 102.81 46.902 103.57 46.902 C 104.106 46.902 104.514 47.042 104.793 47.326 C 105.072 47.61 105.213 48.018 105.213 48.556 L 105.213 52.676 L 103.913 52.676 M 107.82 52.675 L 107.82 45.04 L 112.326 45.04 L 112.326 45.624 L 108.47 45.624 L 108.47 48.424 L 111.775 48.424 L 111.775 49.008 L 108.47 49.008 L 108.47 52.081 L 112.326 52.081 L 112.326 52.665 L 107.82 52.665 M 113.626 52.665 L 113.626 45.04 L 114.276 45.04 L 114.276 48.576 L 117.779 45.04 L 118.617 45.04 L 114.915 48.763 L 118.915 52.663 L 118.022 52.663 L 114.266 49.006 L 114.266 52.663 L 113.616 52.663 M 121.03 48.82 C 120.465 48.6 120.05 48.337 119.785 48.033 C 119.52 47.729 119.388 47.353 119.388 46.903 C 119.388 46.303 119.606 45.8 120.043 45.421 C 120.48 45.042 121.055 44.854 121.767 44.854 C 122.11 44.856 122.451 44.895 122.786 44.97 C 123.142 45.047 123.478 45.156 123.794 45.295 L 123.794 45.857 C 123.044 45.593 122.38 45.46 121.8 45.46 C 121.234 45.46 120.8 45.583 120.5 45.83 C 120.2 46.077 120.048 46.427 120.048 46.882 C 120.048 47.139 120.094 47.347 120.186 47.504 C 120.278 47.661 120.428 47.804 120.638 47.934 C 120.848 48.064 121.146 48.201 121.536 48.347 L 122.716 48.799 C 123.246 49.004 123.63 49.256 123.873 49.553 C 124.116 49.85 124.236 50.223 124.236 50.671 C 124.255 51.283 123.989 51.869 123.515 52.257 C 123.035 52.661 122.4 52.863 121.615 52.863 C 120.8 52.863 120.073 52.709 119.435 52.401 L 119.435 51.839 C 120.205 52.119 120.915 52.259 121.561 52.259 C 122.161 52.259 122.657 52.116 123.021 51.829 C 123.385 51.542 123.566 51.153 123.566 50.661 C 123.572 50.375 123.465 50.098 123.268 49.89 C 123.07 49.677 122.75 49.486 122.31 49.317 L 121.032 48.821" fill="#232a3a"/>
    <g transform="matrix(0.009291, 0, 0, -0.009291, 55.742794, 54.945866)" style="">
      <path d="M525.438 782.113h33.964V681.938l97.8 100.175h44.836l-107.312-110.37 114.097-127.355H665.36l-105.957 118.86v-118.86H525.44v237.726" fill="url(#B)" clip-path="url(#A)"/>
      <path d="M631.824 876.457l167.266-96.57a9.24 9.24 0 0 0 4.609-7.989V578.754c0-3.293 1.77-6.34 4.62-7.988l149.266-86.184c6.152-3.555 13.84.9 13.84 7.988v376.172c0 3.293-1.758 6.336-4.6 7.988l-325.76 188.08c-6.153 3.55-13.852-.9-13.852-8V884.445c0-3.3 1.762-6.336 4.62-7.988" fill="url(#D)" clip-path="url(#C)"/>
      <path d="M775.75 530.344l-167.266-96.57c-2.85-1.652-6.375-1.652-9.226 0L408.652 543.82a9.26 9.26 0 0 0-4.62 8v220.097a9.25 9.25 0 0 0 4.621 7.989L575.92 876.47a9.22 9.22 0 0 1 4.617 7.984v172.367c0 7.1-7.695 11.54-13.847 8L240.926 876.73c-2.852-1.652-4.6-4.695-4.6-7.988v-413.77c0-3.3 1.758-6.336 4.6-8L599.258 240.1c2.85-1.653 6.375-1.653 9.226 0l325.762 188.074c6.152 3.554 6.152 12.433 0 15.984L784.98 530.344c-2.863 1.652-6.378 1.652-9.23 0" fill="url(#F)" clip-path="url(#E)"/>
    </g>
  </g>
</svg>