<svg xmlns="http://www.w3.org/2000/svg" viewBox="0 0 1025.39 306.86"><defs><style>.b713727b-011f-4296-9ec1-27eb9a917c7d{fill:#221f20;}.b1027130-c9e3-4292-a438-4fe532366931{fill:#f0ae37;}</style></defs><g id="e2bbe5e4-a32f-408b-a537-dfd607dc3602" data-name="Layer 2"><g id="aa683cff-cde5-4289-b9e0-1b9f2e58eb09" data-name="Layer 1"><g id="bf7297eb-c3fa-4df2-81e3-b666e827be5f" data-name="e62bd491-3891-4e59-83f6-1fc56465cd6c"><g id="a6a543fc-218d-40b9-bc48-a92912d8ec2a" data-name="b63671e8-75e5-4926-aa19-aefc756d4d9c"><g id="b7748270-de51-4499-aff7-f0f10fcb3c3f" data-name="af91a2eb-a3e7-4756-ba29-3c4358921480"><g id="b590c747-4380-4a34-946c-4fbea79902a3" data-name="b928a6c6-8c79-4096-bdb1-2867c515049c"><path id="e0b315a0-e986-441f-a97e-261f5ea4105f" data-name="b05fae3a-1312-4a22-8375-018bdb0d7460" class="b713727b-011f-4296-9ec1-27eb9a917c7d" d="M0,0H425.39V306.86H0Z"/><path class="b1027130-c9e3-4292-a438-4fe532366931" d="M423.39,0V99.32q-2-5-4.3-9.71A109.29,109.29,0,0,0,381,46.37Q366.63,37,346.12,31.67q-20.34-5.48-56.23-5.47H232V280.67h58.62q30.93,0,50.75-4.1a118.61,118.61,0,0,0,39.31-16.24q23.75-15.72,37.75-43.75,2.76-5.46,5-11.18V306.86h602V0ZM388.5,202.91A74.46,74.46,0,0,1,362,234.67,84.51,84.51,0,0,1,331.08,248q-16.92,3.57-39.48,3.59H265.8V55.25h25.8q22.9,0,38.28,3.59a98,98,0,0,1,28.88,11.83,73.51,73.51,0,0,1,28.89,32.47q9.74,20.65,9.74,50.06Q397.39,182.93,388.5,202.91Z"/><polygon class="b1027130-c9e3-4292-a438-4fe532366931" points="205.47 26.2 164.28 26.2 60.03 143.27 60.03 26.2 26.2 26.2 26.2 280.67 60.03 280.67 60.03 178.99 74.9 162.24 167.7 280.67 211.62 280.67 100.19 139.85 205.47 26.2"/><path id="b2a429be-a085-4b4d-a726-e0b911550574" data-name="e67a144b-368d-4794-bb05-7496379d99bf" class="b713727b-011f-4296-9ec1-27eb9a917c7d" d="M531.66,196.57v53.1H517.89V203.09a89.3,89.3,0,0,0-.59-10.48,21.88,21.88,0,0,0-2-7.83,10.4,10.4,0,0,0-4.69-4.54,18,18,0,0,0-8.17-1.57,23.46,23.46,0,0,0-10.62,2.78,53.39,53.39,0,0,0-10.62,7.11v61.11H467.39V167.86h13.77v9.08a53.37,53.37,0,0,1,12.16-8.42A28.38,28.38,0,0,1,506,165.59q12.06,0,18.9,8T531.66,196.57Zm83.05-28.71v81.81H600.94v-9.08a62,62,0,0,1-12.08,8.49,28.14,28.14,0,0,1-12.74,2.86A29.26,29.26,0,0,1,566,250.2a21.06,21.06,0,0,1-8.2-5.56,26.4,26.4,0,0,1-5.5-9.6,45.25,45.25,0,0,1-1.9-14.06v-53.1h13.77v46.58c0,4.35.15,8,.44,10.84a21.52,21.52,0,0,0,2.19,7.47,10.75,10.75,0,0,0,4.58,4.62,19.25,19.25,0,0,0,8.35,1.46A24.16,24.16,0,0,0,590.51,236,48.84,48.84,0,0,0,601,229V167.86Zm69.14,59.62v-44.9a46.34,46.34,0,0,0-9.52-3.52,34.57,34.57,0,0,0-8.64-1.09q-10.47,0-16.48,7.69t-6,22q0,13.64,4.54,20.73t14.86,7.1a31.62,31.62,0,0,0,11-2.12A34.54,34.54,0,0,0,683.85,227.48Zm-47,35.3h.74c.93.39,2.29.93,4.1,1.61,2,.71,4.07,1.32,6.15,1.83,2.54.63,4.88,1.15,7,1.54a40,40,0,0,0,7,.59,29.91,29.91,0,0,0,10.81-1.68,16.29,16.29,0,0,0,7-4.69,18.26,18.26,0,0,0,3.29-7,39.54,39.54,0,0,0,1-9v-7.18A44,44,0,0,1,673,246a34.48,34.48,0,0,1-13.4,2.27q-14,0-22.27-10.4T629.09,208a52.2,52.2,0,0,1,2.85-18,41.42,41.42,0,0,1,7.69-13.41,31.7,31.7,0,0,1,10.92-8.13,31.36,31.36,0,0,1,13-2.85,34.76,34.76,0,0,1,11,1.54,43.67,43.67,0,0,1,9.37,4.24l.81-3.51h13v72.47q0,20.81-9.08,30.54t-27.87,9.76a84.43,84.43,0,0,1-12.3-1,89,89,0,0,1-11.65-2.56Zm129.94-35.3v-44.9a46.43,46.43,0,0,0-9.53-3.52,34.57,34.57,0,0,0-8.64-1.09q-10.47,0-16.48,7.69t-6,22q0,13.64,4.54,20.73t14.86,7.1a31.62,31.62,0,0,0,11-2.12,34.7,34.7,0,0,0,10.23-5.89Zm-47,35.3h.74c.93.39,2.29.93,4.1,1.61,2,.71,4.07,1.32,6.15,1.83,2.54.63,4.88,1.15,7,1.54a40,40,0,0,0,7,.59,30.22,30.22,0,0,0,10.78-1.68,16.29,16.29,0,0,0,7-4.69,18.26,18.26,0,0,0,3.29-7,38.93,38.93,0,0,0,1-9v-7.18A43.55,43.55,0,0,1,755.93,246a34.48,34.48,0,0,1-13.4,2.27q-14,0-22.27-10.4T712,208a52.2,52.2,0,0,1,2.85-18,41.42,41.42,0,0,1,7.69-13.41,31.84,31.84,0,0,1,10.86-8.17,31.36,31.36,0,0,1,13-2.85,34.76,34.76,0,0,1,11,1.54,43.74,43.74,0,0,1,9.38,4.24l.8-3.51h13v72.51q0,20.81-9.08,30.54t-27.8,9.76a84.43,84.43,0,0,1-12.3-1,89,89,0,0,1-11.65-2.56ZM836,251.57q-19.56,0-30.4-11T794.82,209.2q0-20,10.47-31.79t27.39-11.86a38,38,0,0,1,13.48,2.2,26.62,26.62,0,0,1,10.23,6.9,31.66,31.66,0,0,1,6.74,11.5,50.7,50.7,0,0,1,2.35,16.55v7.5H808.81q0,14.28,7.17,21.83t19.85,7.54a38.9,38.9,0,0,0,8.86-1,43.47,43.47,0,0,0,7.91-2.64,62.24,62.24,0,0,0,6.3-3.22,41.75,41.75,0,0,0,4.25-3H864v15c-1.61.63-3.62,1.44-6,2.42a58.82,58.82,0,0,1-6.44,2.19c-2.69.73-5.13,1.3-7.33,1.69A48.09,48.09,0,0,1,836,251.57Zm-27.17-51.9h43.28a37.93,37.93,0,0,0-1.32-9.6,19.66,19.66,0,0,0-3.37-6.81,15.3,15.3,0,0,0-6.22-4.69,23.49,23.49,0,0,0-9.3-1.61,23.15,23.15,0,0,0-9.38,1.69,21.63,21.63,0,0,0-7,4.76,22.62,22.62,0,0,0-4.68,7.17,30.17,30.17,0,0,0-2,9.09Zm95.36,51.63q-11.28,0-17.58-6.37t-6.3-20.26V179.28H871V167.86h9.3V144.35h13.77v23.51h25.33v11.42H894.06V218.2c0,4.15.07,7.34.22,9.59a16.3,16.3,0,0,0,1.68,6.3,8.24,8.24,0,0,0,4,3.88,19,19,0,0,0,7.55,1.25,22.56,22.56,0,0,0,6.52-1,43.37,43.37,0,0,0,4.54-1.68h.8V248.9a71.14,71.14,0,0,1-7.88,1.77,51.38,51.38,0,0,1-7.32.61Zm47.53.37a52,52,0,0,1-15.38-2.2,70.12,70.12,0,0,1-11.79-4.69V229.31h.73c1.17.93,2.53,1.95,4.1,3.07a43.88,43.88,0,0,0,6.37,3.52,59.75,59.75,0,0,0,7.7,2.86,31,31,0,0,0,8.78,1.24,37.46,37.46,0,0,0,7-.73,17.81,17.81,0,0,0,5.56-2,9.42,9.42,0,0,0,4.84-9.3c0-3.27-.9-5.73-2.71-7.4s-5-3.06-9.45-4.17c-1.76-.44-4.06-1-6.89-1.54s-5.45-1.22-7.83-1.9q-9.36-2.7-13.59-8.29a23.93,23.93,0,0,1,4.1-31.79q8.34-7,22.2-7a57.47,57.47,0,0,1,13.69,1.69,47.48,47.48,0,0,1,11.58,4.24v14.73H980a42.38,42.38,0,0,0-11.79-6.6,36.62,36.62,0,0,0-13-2.41,21.8,21.8,0,0,0-11.5,2.85A9.45,9.45,0,0,0,939,189c0,3.41.93,6,2.78,7.69s4.83,3,8.94,4.1q3.06.8,6.81,1.61c2.54.49,5.2,1.07,8,1.76q9.08,2.25,13.62,7.54t4.62,14.36a24.48,24.48,0,0,1-2.13,10,22,22,0,0,1-6.07,8.06,31.61,31.61,0,0,1-10,5.56,43.22,43.22,0,0,1-13.87,2Z"/></g></g></g></g></g></g></svg>