<svg xmlns="http://www.w3.org/2000/svg" width="147" height="22" viewBox="0 0 147 22" fill="none">
  <path fill-rule="evenodd" clip-rule="evenodd" d="M11.3801 0.77941C12.2293 1.12838 12.9724 1.61484 13.5881 2.22818C14.2039 2.84154 14.671 3.57118 15.0213 4.40662C15.3716 5.24206 15.5414 6.17268 15.5414 7.15617C15.5414 8.13965 15.3716 9.05963 15.0319 9.89507C14.6922 10.7411 14.2145 11.4708 13.5988 12.0841C12.9831 12.6975 12.2506 13.184 11.4013 13.5223C10.5627 13.8607 9.62848 14.0299 8.64123 14.0299H2.80258V21.3267H0V0.26123H8.59875C9.59665 0.26123 10.5309 0.441004 11.3801 0.77941ZM12.4311 8.86935C12.6434 8.35122 12.7496 7.78013 12.7496 7.17736C12.7496 6.5746 12.6434 5.99295 12.4205 5.46426C12.2082 4.93548 11.911 4.47021 11.5394 4.08949C11.1678 3.70876 10.722 3.4021 10.2124 3.18006C9.70288 2.96853 9.14021 2.8522 8.53516 2.8522H2.80258V11.4497H8.58819C9.18269 11.4497 9.74535 11.3334 10.2443 11.1219C10.7538 10.8998 11.1891 10.6037 11.5606 10.223C11.9322 9.84229 12.2188 9.38757 12.4311 8.86935Z" fill="white"/>
  <path d="M23.7685 5.59103C23.1528 5.73908 22.5795 5.96112 22.0593 6.23611C21.5392 6.51101 21.0615 6.84943 20.6687 7.23015C20.6262 7.27247 20.5838 7.3147 20.5413 7.35701L20.4139 5.36892H17.9404V21.3267H20.7005V13.2685C20.7005 12.3907 20.828 11.5976 21.0827 10.9314C21.3375 10.2757 21.6879 9.72583 22.1231 9.29223C22.5583 8.85872 23.0997 8.53086 23.7154 8.30882C24.3524 8.07615 25.053 7.95985 25.8173 7.95985H27.8662V5.36892H25.7537C25.053 5.36892 24.3842 5.44298 23.7685 5.59103Z" fill="white"/>
  <path fill-rule="evenodd" clip-rule="evenodd" d="M40.7538 5.62279C41.7941 6.0563 42.7177 6.64851 43.4926 7.39932C44.2676 8.15021 44.8833 9.04908 45.3079 10.0642C45.754 11.0795 45.9767 12.1898 45.9767 13.3426C45.9767 14.5058 45.754 15.6161 45.3079 16.6314C44.8727 17.6465 44.257 18.5455 43.482 19.2963C42.7071 20.0471 41.7835 20.6393 40.7431 21.0729C39.6922 21.5064 38.5563 21.7285 37.3461 21.7285C36.1465 21.7285 35.0106 21.5064 33.9703 21.0729C32.9299 20.6499 32.0064 20.0471 31.242 19.2963C30.4777 18.5348 29.862 17.6465 29.4161 16.6314C28.9703 15.6161 28.7473 14.5058 28.7473 13.3426C28.7473 12.1898 28.9809 11.0795 29.4161 10.0642C29.8514 9.04908 30.467 8.15021 31.242 7.39932C32.017 6.64851 32.9299 6.0563 33.9703 5.62279C36.051 4.7556 38.6625 4.7556 40.7538 5.62279ZM42.7816 15.6479C43.0788 14.9394 43.2381 14.1674 43.2381 13.3425C43.2381 12.5282 43.0895 11.7562 42.7816 11.0583C42.4843 10.3498 42.0597 9.72582 41.5289 9.21824C40.9982 8.70011 40.3718 8.28763 39.6605 7.99152C38.9599 7.69542 38.1849 7.54737 37.3781 7.54737C36.5714 7.54737 35.7964 7.69542 35.0958 7.99152C34.3845 8.27707 33.7688 8.68947 33.238 9.20769C32.7072 9.72582 32.2932 10.3392 31.9853 11.0477C31.6881 11.7562 31.5289 12.5282 31.5289 13.3425C31.5289 14.1674 31.6775 14.9394 31.9853 15.6479C32.2932 16.3564 32.7178 16.9698 33.238 17.4879C33.7581 18.0061 34.3845 18.4185 35.0958 18.7041C36.5077 19.2856 38.2593 19.2856 39.6712 18.7041C40.3824 18.408 40.9982 18.0061 41.5289 17.4879C42.0491 16.9698 42.4738 16.3564 42.7816 15.6479Z" fill="white"/>
  <path d="M54.7558 17.287L49.6178 5.36892H46.624L53.5994 21.3267H55.9343L62.9088 5.36892H59.9151L54.7558 17.287Z" fill="white"/>
  <path fill-rule="evenodd" clip-rule="evenodd" d="M75.6057 5.6227C76.6565 6.04574 77.5797 6.6485 78.3441 7.39932C79.1085 8.15013 79.7248 9.04899 80.1806 10.0642C80.6267 11.0794 80.8493 12.1898 80.8493 13.3425C80.8493 13.5011 80.8395 13.628 80.8288 13.7232L80.7437 14.4317H66.4124C66.518 15.0239 66.6989 15.5738 66.9641 16.0708C67.3143 16.7265 67.7604 17.2975 68.3022 17.7523C68.8431 18.2176 69.4586 18.5771 70.1387 18.8309C71.327 19.2751 72.6758 19.3174 73.8224 19.0107C74.3208 18.8732 74.7987 18.6829 75.2235 18.4291C75.6589 18.1859 76.0517 17.8792 76.3914 17.5302C76.731 17.1918 77.0281 16.79 77.272 16.3669L77.4209 16.1026H80.3934L80.0644 16.8428C79.7452 17.5408 79.3213 18.207 78.8114 18.7992C78.3016 19.3914 77.6968 19.9096 77.0281 20.3431C76.3488 20.7767 75.6057 21.1151 74.7987 21.3584C73.9918 21.6016 73.121 21.7284 72.2191 21.7284C71.0087 21.7284 69.8727 21.5064 68.8325 21.0728C67.7923 20.6392 66.8789 20.0365 66.1047 19.2856C65.3297 18.5348 64.7134 17.636 64.2788 16.6207C63.8328 15.6056 63.6094 14.4951 63.6094 13.3425C63.6094 12.1898 63.8434 11.0794 64.2788 10.0642C64.7134 9.04899 65.3297 8.15013 66.1047 7.39932C66.8789 6.6485 67.7923 6.0563 68.8325 5.6227C70.9031 4.76615 73.4926 4.75559 75.6057 5.6227ZM66.4444 12.0629H77.9513C77.8457 11.5447 77.6648 11.0476 77.4316 10.5929C77.1026 9.95842 76.6778 9.40852 76.168 8.94325C75.6581 8.4779 75.0639 8.11838 74.3953 7.85403C73.058 7.32525 71.3909 7.33581 70.0536 7.85403C69.3743 8.11838 68.7687 8.48846 68.2596 8.94325C67.7391 9.40852 67.3037 9.95842 66.9747 10.5929C66.7308 11.0476 66.5499 11.5447 66.4444 12.0629Z" fill="white"/>
  <path d="M87.9302 9.12298C88.472 8.62596 89.0981 8.23467 89.7987 7.95977C91.0091 7.48386 92.4102 7.43099 93.6313 7.75885C94.1404 7.89634 94.629 8.09726 95.0643 8.36161C95.5104 8.62596 95.9139 8.94326 96.2641 9.31334C96.6251 9.68351 96.9221 10.1065 97.166 10.5612L97.315 10.8467H100.181L99.8946 10.1277C99.5869 9.36621 99.1728 8.65771 98.6523 8.02319C98.1326 7.38868 97.5269 6.83878 96.8477 6.39463C96.1684 5.95048 95.404 5.59095 94.5864 5.34772C92.6647 4.77671 90.4248 4.87181 88.5989 5.63326C87.5587 6.06686 86.6461 6.65906 85.8817 7.40987C85.1067 8.16069 84.5019 9.05955 84.0559 10.0748C83.6205 11.09 83.3872 12.2004 83.3872 13.353C83.3872 14.5057 83.6098 15.6161 84.0559 16.6313C84.4912 17.6465 85.1067 18.5454 85.8711 19.2962C86.6355 20.047 87.5587 20.6498 88.5989 21.0834C89.6399 21.517 90.7759 21.739 91.9748 21.739C92.8775 21.739 93.7581 21.6121 94.5757 21.3689C95.404 21.1151 96.1577 20.7662 96.837 20.322C97.5163 19.8778 98.1326 19.3279 98.6416 18.6934C99.1621 18.0589 99.5763 17.3504 99.8734 16.5995L100.16 15.8805H97.3043L97.1554 16.1555C96.9009 16.6207 96.5931 17.0437 96.2429 17.4033C95.8819 17.7734 95.4785 18.0907 95.0324 18.3445C94.597 18.5983 94.1084 18.7992 93.5994 18.9472C92.3889 19.2751 91.0091 19.2221 89.7987 18.7463C89.0981 18.482 88.472 18.0907 87.9302 17.5937C87.3893 17.0966 86.9539 16.4832 86.6355 15.7642C86.3171 15.0556 86.1469 14.2519 86.1469 13.353C86.1469 12.4753 86.3065 11.661 86.6249 10.9525C86.9645 10.2334 87.3999 9.62 87.9302 9.12298Z" fill="white"/>
  <path d="M108.759 18.9156C108.409 18.8098 108.1 18.6194 107.824 18.355C107.548 18.0801 107.326 17.6994 107.145 17.2129C106.965 16.7053 106.869 16.0392 106.869 15.2354V7.93865H112.527V5.36891H106.869V0.906254L104.523 0.927402L104.119 5.27373L101.36 5.52752V7.93865H104.109V15.2354C104.109 16.3775 104.247 17.361 104.533 18.1647C104.82 18.9895 105.234 19.6558 105.744 20.1739C106.264 20.6922 106.89 21.0623 107.591 21.2843C108.27 21.5064 109.013 21.6121 109.81 21.6121H113.143L113.164 19.0953H109.937C109.544 19.0953 109.141 19.0318 108.759 18.9156Z" fill="white"/>
  <path d="M127.75 13.7126C127.75 15.5632 127.336 16.9486 126.529 17.8369C125.712 18.7146 124.544 19.1482 122.941 19.1482C121.317 19.1482 120.128 18.7146 119.332 17.8263C118.525 16.9275 118.122 15.5527 118.122 13.7232V5.36892H115.362V13.755C115.362 15.0557 115.531 16.2083 115.882 17.1918C116.232 18.1964 116.742 19.0424 117.4 19.7087C118.058 20.3855 118.875 20.8931 119.821 21.2315C120.744 21.5593 121.795 21.7285 122.941 21.7285C124.088 21.7285 125.139 21.5593 126.063 21.2315C127.007 20.8931 127.814 20.3855 128.483 19.7087C129.141 19.0424 129.651 18.1859 130.001 17.1918C130.34 16.2083 130.521 15.0557 130.521 13.755V5.36892H127.761V13.7126H127.75Z" fill="white"/>
  <path d="M146.413 14.9922C146.211 14.5269 145.935 14.1145 145.585 13.7761C145.256 13.4483 144.853 13.1733 144.407 12.9513C143.982 12.7397 143.536 12.5706 143.069 12.4331C142.613 12.2956 142.145 12.1898 141.678 12.1158C141.222 12.0418 140.776 11.9783 140.341 11.9255C139.576 11.8621 138.908 11.7669 138.323 11.6505C137.772 11.5342 137.315 11.3967 136.954 11.217C136.636 11.0689 136.402 10.8786 136.254 10.6564C136.115 10.4555 136.042 10.2017 136.042 9.88452C136.042 9.59897 136.105 9.30287 136.222 9.01732C136.339 8.74242 136.54 8.49919 136.806 8.27707C137.092 8.04439 137.475 7.85411 137.962 7.70606C138.462 7.55801 139.088 7.47339 139.82 7.47339C140.33 7.47339 140.808 7.53681 141.233 7.65319C141.646 7.76949 142.007 7.9281 142.305 8.12902C142.591 8.31938 142.803 8.55206 142.974 8.8164C143.132 9.08075 143.217 9.3663 143.228 9.68359L143.249 10.1912H145.967V9.6624C145.967 8.98565 145.818 8.3405 145.521 7.75893C145.224 7.18784 144.799 6.68026 144.268 6.25722C143.738 5.84482 143.1 5.52761 142.357 5.29493C141.625 5.07281 140.797 4.95652 139.905 4.95652C138.727 4.95652 137.708 5.09401 136.88 5.35836C136.042 5.63334 135.341 6.00343 134.81 6.45814C134.268 6.92349 133.875 7.47339 133.642 8.07615C133.409 8.66835 133.292 9.27111 133.292 9.88452C133.292 10.4767 133.387 11.0054 133.589 11.4496C133.78 11.8937 134.045 12.285 134.374 12.6023C134.693 12.9195 135.075 13.1839 135.5 13.3848C135.893 13.5752 136.328 13.7338 136.774 13.8607C137.209 13.9876 137.665 14.0827 138.122 14.1462C138.568 14.2097 138.993 14.2625 139.417 14.3154C140.149 14.4 140.819 14.5163 141.402 14.6433C141.965 14.7701 142.453 14.9394 142.846 15.1403C143.207 15.32 143.483 15.5421 143.674 15.8065C143.844 16.0497 143.929 16.3353 143.929 16.7053C143.929 17.435 143.589 18.0061 142.899 18.4503C142.145 18.9368 140.956 19.1905 139.375 19.1905C138.844 19.1905 138.334 19.1165 137.867 18.9579C137.4 18.7993 136.986 18.5983 136.636 18.3445C136.296 18.1013 136.031 17.8263 135.839 17.5091C135.659 17.213 135.564 16.9169 135.553 16.6102L135.542 16.092H132.814V16.6208C132.814 17.2553 132.973 17.8898 133.302 18.5032C133.621 19.1059 134.067 19.6558 134.64 20.1317C135.203 20.597 135.893 20.9883 136.678 21.2738C137.464 21.5594 138.355 21.7074 139.322 21.7074C140.458 21.7074 141.477 21.6016 142.368 21.3796C143.281 21.1574 144.056 20.8402 144.682 20.4172C145.33 19.9837 145.84 19.4338 146.19 18.7887C146.54 18.1436 146.71 17.4034 146.71 16.5996C146.732 16.0074 146.625 15.4575 146.413 14.9922Z" fill="white"/>
</svg>
