<svg xmlns="http://www.w3.org/2000/svg" width="27" height="32" viewBox="0 0 27 32" fill="none">
  <path d="M11.4928 30.626L11.2169 30.1501C11.2062 30.1395 11.2062 30.1184 11.1956 30.1078L11.185 30.0866C11.1319 30.0126 11.0894 29.928 11.0258 29.8328C9.49712 27.5698 4.49706 19.9452 5.35694 12.4052C5.99389 6.57837 11.1107 4.30474 15.0279 5.25649C15.3676 5.34109 18.0852 5.88042 17.9897 8.56651C17.9366 9.99407 17.0555 11.5804 14.1999 12.807C12.8836 13.3676 13.34 13.2406 11.3548 13.854C10.357 14.1607 9.73062 14.2241 9.65631 14.2559C9.57144 14.2875 9.50768 14.3616 9.50768 14.4568C9.50768 14.5731 9.60327 14.6683 9.72006 14.6683H10.0491C10.0597 14.6683 10.081 14.6683 10.0915 14.6683C11.9493 14.6894 17.0768 13.7377 19.6352 12.236C21.4717 11.1997 23.1065 9.5288 23.1065 7.08597C23.1065 5.02384 22.045 2.78194 18.5311 1.06878C16.3973 0.0218521 12.1935 -0.7607 7.62872 1.23798C3.80703 2.91941 1.39725 6.78987 0.728461 8.84141C-0.640974 13.0503 -0.025259 17.0688 2.11913 20.897C4.35905 24.8837 6.70515 27.5592 10.7603 30.5308C10.8665 30.6048 11.0046 30.7317 11.1319 30.8269C11.2275 30.8904 11.2805 30.9221 11.323 30.9115C11.323 30.9115 11.323 30.9115 11.3336 30.9115C11.4398 30.9115 11.5247 30.8269 11.5247 30.7211C11.5247 30.6895 11.5035 30.6577 11.4823 30.626H11.4928Z" fill="#305DFF"/>
  <path d="M24.667 6.6418C24.6246 6.56777 24.5503 6.51489 24.4548 6.51489C24.3273 6.51489 24.2212 6.62064 24.2212 6.74754C24.2212 6.75812 24.2212 6.75812 24.2212 6.76869C24.5184 8.98941 24.837 18.6444 16.2488 24.0166C15.6755 24.3761 15.5481 23.9214 15.495 23.7628C15.0491 22.2717 15.2297 19.2473 15.6436 16.0007C15.6543 15.8844 15.6755 15.7046 15.6755 15.694C15.6331 15.5883 15.2084 15.8949 14.9111 16.1805C14.0619 17.0265 12.7243 19.2366 12.0555 22.1871C11.185 26.2691 12.1617 30.5942 12.8092 31.6412C13.0321 32.0007 13.1383 32.0642 13.5736 31.821C15.6543 30.7105 16.822 29.6954 18.2976 28.4263C21.5036 25.5605 23.5843 22.6101 24.9856 19.7125C26.8645 15.9055 27.0874 10.7978 24.667 6.70524V6.6418Z" fill="#FCD400"/>
</svg>
