<svg viewBox="22.747 28.773 67.943 8.858" xmlns="http://www.w3.org/2000/svg"><defs><linearGradient id="a" spreadMethod="pad" gradientUnits="userSpaceOnUse" y2="790.912" x2="536.264" y1="550.499" x1="682.17"><stop offset="0" stop-color="#4f66b9"/><stop offset="1" stop-color="#484fab"/></linearGradient><linearGradient id="c" spreadMethod="pad" gradientUnits="userSpaceOnUse" y2="1086.135" x2="677.091" y1="516.667" x1="1007.83"><stop offset="0" stop-color="#4f66b9"/><stop offset="1" stop-color="#484fab"/></linearGradient><linearGradient id="e" spreadMethod="pad" gradientUnits="userSpaceOnUse" y2="920.709" x2="318.474" y1="284.03" x1="679.093"><stop offset="0" stop-color="#4c68bb"/><stop offset="1" stop-color="#5180c9"/></linearGradient><clipPath id="b"><path d="M525.438 782.113h33.964V681.938l97.8 100.175h44.836l-107.312-110.37 114.097-127.355H665.36l-105.957 118.86v-118.86H525.44z"/></clipPath><clipPath id="d"><path d="M631.824 876.457l167.266-96.57a9.24 9.24 0 004.609-7.989V578.754c0-3.293 1.77-6.34 4.62-7.988l149.266-86.184c6.152-3.555 13.84.9 13.84 7.988v376.172a9.246 9.246 0 01-4.6 7.988l-325.76 188.08c-6.153 3.55-13.852-.9-13.852-8V884.445c0-3.3 1.762-6.336 4.62-7.988z"/></clipPath><clipPath id="f"><path d="M775.75 530.344l-167.266-96.57a9.207 9.207 0 00-9.226 0L408.652 543.82a9.26 9.26 0 00-4.62 8v220.097a9.25 9.25 0 004.621 7.989L575.92 876.47a9.22 9.22 0 014.617 7.984v172.367c0 7.1-7.695 11.54-13.847 8L240.926 876.73a9.225 9.225 0 01-4.6-7.988v-413.77c0-3.3 1.758-6.336 4.6-8L599.258 240.1a9.202 9.202 0 019.226 0l325.762 188.074c6.152 3.554 6.152 12.433 0 15.984L784.98 530.344a9.214 9.214 0 01-9.23 0z"/></clipPath></defs><path d="M33.523 34.054h2.423l-1.217-3.525-1.206 3.525zm3.37 2.897l-.64-1.917h-3.05l-.617 1.917h-1.345l2.792-7.634h1.454l2.75 7.634h-1.344m9.1 0v-3.8c0-.338-.066-.58-.198-.727-.132-.147-.35-.22-.65-.22-.228 0-.47.038-.727.115a2.827 2.827 0 00-.672.292v4.34h-1.3v-3.8c0-.338-.066-.58-.198-.727-.132-.147-.35-.22-.65-.22a2.505 2.505 0 00-.688.105 2.826 2.826 0 00-.7.303v4.34h-1.3v-5.606h1.08l.12.562c.367-.25.714-.433 1.04-.55a2.91 2.91 0 01.986-.176c.683 0 1.153.253 1.4.76.735-.507 1.44-.76 2.115-.76.52 0 .925.14 1.212.424.287.284.43.692.43 1.23v4.12h-1.3m4.408-.766c.208 0 .426-.045.655-.138.241-.098.466-.233.666-.4v-1.058c-.38-.08-.716-.12-1-.12-.745 0-1.117.297-1.117.892 0 .257.07.457.215.6.145.143.34.215.6.215l-.019.01zm1.486.76l-.1-.54a3.017 3.017 0 01-.853.518 2.493 2.493 0 01-.93.187c-.514 0-.93-.154-1.25-.463-.32-.309-.48-.7-.48-1.2 0-.543.196-.976.6-1.3.404-.324.92-.485 1.58-.485.4 0 .815.055 1.278.165v-.65c0-.375-.08-.635-.242-.782-.162-.147-.444-.22-.848-.22-.573 0-1.23.12-1.972.363v-.914c.276-.14.615-.25 1.015-.33.397-.08.8-.12 1.205-.12.733 0 1.273.147 1.62.44.347.293.522.753.522 1.377v3.955h-1.135m1.97 0v-.96l3.13-3.657h-3.026v-1h4.417v.958L55.26 35.95h3.162v1h-4.551m7.808-.858c.925 0 1.388-.65 1.388-1.95 0-1.292-.463-1.938-1.388-1.938-.925 0-1.388.646-1.388 1.938 0 1.3.463 1.95 1.388 1.95zm0 1.025c-.852 0-1.517-.262-1.994-.788-.477-.526-.714-1.252-.714-2.187 0-.935.238-1.66.716-2.18.478-.52 1.142-.782 1.994-.782.852 0 1.516.26 1.994.782s.716 1.25.716 2.18c0 .93-.24 1.662-.716 2.187-.476.525-1.142.788-1.994.788m7.5-.165V33.24c0-.36-.073-.622-.22-.788-.147-.166-.382-.248-.705-.248-.485 0-.98.16-1.487.484v4.263h-1.3v-5.607h1.08l.132.617c.7-.52 1.4-.782 2.16-.782.536 0 .944.14 1.223.424.279.284.42.692.42 1.23v4.12h-1.3m3.907 0v-7.636h4.506v.584h-3.856v2.8h3.305v.584h-3.305v3.073h3.856v.584h-4.506m5.806 0v-7.625h.65v3.536l3.503-3.536h.838l-3.702 3.723 4 3.9h-.893l-3.756-3.657v3.657h-.65m7.414-3.843c-.565-.22-.98-.483-1.245-.787-.265-.304-.397-.68-.397-1.13 0-.6.218-1.103.655-1.482.437-.379 1.012-.567 1.724-.567a5.258 5.258 0 012.027.441v.562c-.75-.264-1.414-.397-1.994-.397-.566 0-1 .123-1.3.37-.3.247-.452.597-.452 1.052 0 .257.046.465.138.622.092.157.242.3.452.43.21.13.508.267.898.413l1.18.452c.53.205.914.457 1.157.754s.363.67.363 1.118a1.97 1.97 0 01-.721 1.586c-.48.404-1.115.606-1.9.606-.815 0-1.542-.154-2.18-.462v-.562c.77.28 1.48.42 2.126.42.6 0 1.096-.143 1.46-.43.364-.287.545-.676.545-1.168a1.088 1.088 0 00-.298-.77c-.198-.214-.518-.405-.958-.574l-1.278-.496" fill="#232a3a"/><path d="M525.438 782.113h33.964V681.938l97.8 100.175h44.836l-107.312-110.37 114.097-127.355H665.36l-105.957 118.86v-118.86H525.44v237.726" fill="url(#a)" clip-path="url(#b)" transform="matrix(.0093 0 0 -.0093 21.014 39.222)"/><path d="M631.824 876.457l167.266-96.57a9.24 9.24 0 004.609-7.989V578.754c0-3.293 1.77-6.34 4.62-7.988l149.266-86.184c6.152-3.555 13.84.9 13.84 7.988v376.172a9.246 9.246 0 01-4.6 7.988l-325.76 188.08c-6.153 3.55-13.852-.9-13.852-8V884.445c0-3.3 1.762-6.336 4.62-7.988" fill="url(#c)" clip-path="url(#d)" transform="matrix(.0093 0 0 -.0093 21.014 39.222)"/><path d="M775.75 530.344l-167.266-96.57a9.207 9.207 0 00-9.226 0L408.652 543.82a9.26 9.26 0 00-4.62 8v220.097a9.25 9.25 0 004.621 7.989L575.92 876.47a9.22 9.22 0 014.617 7.984v172.367c0 7.1-7.695 11.54-13.847 8L240.926 876.73a9.225 9.225 0 01-4.6-7.988v-413.77c0-3.3 1.758-6.336 4.6-8L599.258 240.1a9.202 9.202 0 019.226 0l325.762 188.074c6.152 3.554 6.152 12.433 0 15.984L784.98 530.344a9.214 9.214 0 01-9.23 0" fill="url(#e)" clip-path="url(#f)" transform="matrix(.0093 0 0 -.0093 21.014 39.222)"/></svg>