<svg version="1.1" id="Layer_1" xmlns="http://www.w3.org/2000/svg" x="0" y="0" viewBox="0 0 472.3 57.8" xml:space="preserve"><style>.st0{fill:#252f3e}</style><path class="st0" d="M100.9 35.8c0 1 .1 2.1.4 3.1.3.8.7 1.7 1.1 2.5.2.2.2.5.2.8 0 .4-.3.8-.7 1l-2.1 1.4c-.3.2-.6.3-.9.3-.4 0-.8-.2-1-.5-.5-.5-.9-1-1.2-1.6s-.7-1.3-1.1-2.1c-2.5 3.1-6.2 4.8-10.1 4.8-2.5.1-5-.7-6.9-2.5-1.7-1.8-2.6-4.2-2.5-6.6-.1-2.7 1-5.3 3-7 2.4-1.9 5.4-2.8 8.4-2.7 1.2 0 2.4.1 3.6.3 1.3.2 2.6.4 3.9.7v-2.5c.2-2-.4-4-1.6-5.5-1.6-1.2-3.6-1.8-5.6-1.6-1.2 0-2.5.2-3.7.5-1.3.3-2.5.7-3.7 1.2-.4.2-.8.3-1.2.5h-.5c-.5 0-.7-.4-.7-1.1v-1.6c0-.4.1-.8.2-1.2.3-.3.6-.6 1-.7 1.4-.7 2.8-1.2 4.3-1.6 1.7-.4 3.5-.7 5.4-.7 3.2-.3 6.5.7 9 2.8 2.1 2.3 3.1 5.4 2.9 8.5l.1 11.1zm-14 5.3c1.2 0 2.4-.2 3.6-.6 1.3-.4 2.4-1.2 3.2-2.2.5-.6.9-1.3 1.2-2.1.2-1 .3-2 .3-3v-1.4c-1-.2-2.1-.4-3.2-.6-1.1-.1-2.1-.2-3.2-.2-1.8-.1-3.6.4-5.1 1.4-1.1 1-1.7 2.4-1.6 3.8-.1 1.3.4 2.7 1.3 3.6.9.9 2.2 1.3 3.5 1.3zm27.6 3.7c-.5 0-.9-.1-1.3-.3-.4-.4-.6-.8-.7-1.3l-8-26.6c-.2-.4-.3-.9-.3-1.4-.1-.4.2-.8.6-.8h3.6c.5 0 .9.1 1.3.3.3.4.6.8.7 1.3l5.8 22.7 5.4-22.7c.1-.5.3-1 .7-1.3s.9-.4 1.4-.3h2.8c.5 0 1 .1 1.4.3.4.4.6.8.7 1.3l5.4 23 6-23c.1-.5.4-1 .7-1.3.4-.3.9-.4 1.3-.3h3.2c.4-.1.8.2.8.6v.7c-.1.3-.1.6-.2.8l-8.3 26.6c-.1.5-.4 1-.7 1.3-.4.3-.9.4-1.3.3h-3c-.5.1-1-.1-1.4-.4-.4-.4-.6-.9-.7-1.4L125 20.8 119.5 43c-.1.5-.3 1-.7 1.4-.4.3-.9.4-1.4.4h-2.9zm44.2.9c-1.8 0-3.6-.2-5.3-.6-1.4-.3-2.7-.7-4-1.4-.8-.3-1.3-1.1-1.3-1.9V40c0-.7.3-1.1.8-1.1.2 0 .4 0 .6.1l.9.4c1.2.5 2.5.9 3.8 1.2 1.4.3 2.7.4 4.1.4 1.7.1 3.5-.3 5-1.1 1.1-.7 1.8-1.9 1.8-3.2 0-.9-.3-1.8-.9-2.4-1-.9-2.3-1.5-3.6-1.8l-5-1.6c-2.1-.6-4-1.8-5.4-3.5-1.1-1.4-1.7-3.2-1.7-5 0-1.3.3-2.7.9-3.8s1.5-2.1 2.5-2.8c1.1-.8 2.2-1.4 3.5-1.8 1.4-.4 2.9-.6 4.3-.6.8 0 1.5 0 2.3.1s1.5.2 2.2.4 1.4.3 2 .5c.5.2 1 .4 1.4.6.4.2.7.5 1 .8.2.3.3.7.3 1.1v1.6c0 .7-.3 1.1-.8 1.1-.5-.1-.9-.2-1.3-.4-2.1-.9-4.3-1.4-6.6-1.3-1.6-.1-3.2.3-4.6 1-1.1.6-1.7 1.8-1.6 3.1 0 .9.3 1.8 1 2.4 1.1.9 2.4 1.5 3.8 1.9l4.9 1.5c2.1.5 3.9 1.7 5.3 3.3 1.1 1.4 1.7 3.2 1.6 5 0 1.4-.3 2.8-.9 4-.6 1.2-1.5 2.2-2.5 3-1.1.9-2.4 1.5-3.8 1.9-1.4.5-3.1.7-4.7.7z"/><path class="st0" d="M100.9 35.8c0 1 .1 2.1.4 3.1.3.8.7 1.7 1.1 2.5.2.2.2.5.2.8 0 .4-.3.8-.7 1l-2.1 1.4c-.3.2-.6.3-.9.3-.4 0-.8-.2-1-.5-.5-.5-.9-1-1.2-1.6s-.7-1.3-1.1-2.1c-2.5 3.1-6.2 4.8-10.1 4.8-2.5.1-5-.7-6.9-2.5-1.7-1.8-2.6-4.2-2.5-6.6-.1-2.7 1-5.3 3-7 2.4-1.9 5.4-2.8 8.4-2.7 1.2 0 2.4.1 3.6.3 1.3.2 2.6.4 3.9.7v-2.5c.2-2-.4-4-1.6-5.5-1.6-1.2-3.6-1.8-5.6-1.6-1.2 0-2.5.2-3.7.5-1.3.3-2.5.7-3.7 1.2-.4.2-.8.3-1.2.5h-.5c-.5 0-.7-.4-.7-1.1v-1.6c0-.4.1-.8.2-1.2.3-.3.6-.6 1-.7 1.4-.7 2.8-1.2 4.3-1.6 1.7-.4 3.5-.7 5.4-.7 3.2-.3 6.5.7 9 2.8 2.1 2.3 3.1 5.4 2.9 8.5l.1 11.1zm-14 5.3c1.2 0 2.4-.2 3.6-.6 1.3-.4 2.4-1.2 3.2-2.2.5-.6.9-1.3 1.2-2.1.2-1 .3-2 .3-3v-1.4c-1-.2-2.1-.4-3.2-.6-1.1-.1-2.1-.2-3.2-.2-1.8-.1-3.6.4-5.1 1.4-1.1 1-1.7 2.4-1.6 3.8-.1 1.3.4 2.7 1.3 3.6.9.9 2.2 1.3 3.5 1.3zm27.6 3.7c-.5 0-.9-.1-1.3-.3-.4-.4-.6-.8-.7-1.3l-8-26.6c-.2-.4-.3-.9-.3-1.4-.1-.4.2-.8.6-.8h3.6c.5 0 .9.1 1.3.3.3.4.6.8.7 1.3l5.8 22.7 5.4-22.7c.1-.5.3-1 .7-1.3s.9-.4 1.4-.3h2.8c.5 0 1 .1 1.4.3.4.4.6.8.7 1.3l5.4 23 6-23c.1-.5.4-1 .7-1.3.4-.3.9-.4 1.3-.3h3.2c.4-.1.8.2.8.6v.7c-.1.3-.1.6-.2.8l-8.3 26.6c-.1.5-.4 1-.7 1.3-.4.3-.9.4-1.3.3h-3c-.5.1-1-.1-1.4-.4-.4-.4-.6-.9-.7-1.4L125 20.8 119.5 43c-.1.5-.3 1-.7 1.4-.4.3-.9.4-1.4.4h-2.9zm44.2.9c-1.8 0-3.6-.2-5.3-.6-1.4-.3-2.7-.7-4-1.4-.8-.3-1.3-1.1-1.3-1.9V40c0-.7.3-1.1.8-1.1.2 0 .4 0 .6.1l.9.4c1.2.5 2.5.9 3.8 1.2 1.4.3 2.7.4 4.1.4 1.7.1 3.5-.3 5-1.1 1.1-.7 1.8-1.9 1.8-3.2 0-.9-.3-1.8-.9-2.4-1-.9-2.3-1.5-3.6-1.8l-5-1.6c-2.1-.6-4-1.8-5.4-3.5-1.1-1.4-1.7-3.2-1.7-5 0-1.3.3-2.7.9-3.8s1.5-2.1 2.5-2.8c1.1-.8 2.2-1.4 3.5-1.8 1.4-.4 2.9-.6 4.3-.6.8 0 1.5 0 2.3.1s1.5.2 2.2.4 1.4.3 2 .5c.5.2 1 .4 1.4.6.4.2.7.5 1 .8.2.3.3.7.3 1.1v1.6c0 .7-.3 1.1-.8 1.1-.5-.1-.9-.2-1.3-.4-2.1-.9-4.3-1.4-6.6-1.3-1.6-.1-3.2.3-4.6 1-1.1.6-1.7 1.8-1.6 3.1 0 .9.3 1.8 1 2.4 1.1.9 2.4 1.5 3.8 1.9l4.9 1.5c2.1.5 3.9 1.7 5.3 3.3 1.1 1.4 1.7 3.2 1.6 5 0 1.4-.3 2.8-.9 4-.6 1.2-1.5 2.2-2.5 3-1.1.9-2.4 1.5-3.8 1.9-1.4.5-3.1.7-4.7.7zm27.3-.6c-.6 0-.9-.3-.9-.9V15.4c0-.6.3-.9.9-.9h1.1c.6 0 .9.3 1 .9l.2 2.4c1.7-1.4 3.5-2.4 5.4-3.2 1.9-.7 3.7-1.1 5.5-1.1 3.6 0 5.9 1.6 7.1 4.7 1.8-1.5 3.7-2.7 5.7-3.5s4-1.2 6-1.2c2.6 0 4.6.8 6 2.4s2 3.9 2 6.9v21.4c0 .6-.3.9-.9.9h-1.5c-.6 0-.9-.3-.9-.9V24.3c0-2.6-.4-4.6-1.3-5.8s-2.2-1.8-4.1-1.8c-3.6 0-7 1.3-10.3 3.8.1 1 .2 1.9.2 2.9v20.8c0 .6-.3.9-.9.9h-1.5c-.6 0-.9-.3-.9-.9V24.3c0-2.6-.4-4.6-1.3-5.8-.9-1.2-2.2-1.8-4.1-1.8-3.5 0-6.9 1.2-10.1 3.7v23.8c0 .6-.3.9-.9.9H186zm54.1.7c-2.6 0-4.7-.8-6.2-2.4s-2.3-3.8-2.3-6.4c0-3 .9-5.3 2.8-7s4.5-2.6 7.7-2.6c2.5 0 5.2.5 8.1 1.4v-5.1c0-2.5-.5-4.3-1.6-5.3-1.1-1.1-2.9-1.6-5.4-1.6-2.6 0-5.3.5-8.3 1.5-.3.1-.6.2-.9.2-.4 0-.6-.3-.6-.8v-1c0-.3.1-.6.2-.8s.3-.3.6-.5c3-1.3 6.1-1.9 9.5-1.9s5.8.8 7.4 2.3 2.4 3.8 2.4 6.8v21.6c0 .6-.3.9-.9.9h-1.2c-.6 0-.9-.3-.9-.9l-.2-2.6c-3.2 2.8-6.6 4.2-10.2 4.2zm.5-3.2c1.4 0 3-.3 4.6-.9 1.7-.6 3.3-1.5 5-2.7v-7.6c-2.5-.7-5-1.1-7.4-1.1-5.3 0-7.9 2.2-7.9 6.6 0 1.9.5 3.3 1.4 4.3 1 .9 2.4 1.4 4.3 1.4zm21.4 2.5c-.6 0-.9-.3-.9-.9V15.4c0-.6.3-.9.9-.9h1.1c.6 0 .9.3 1 .9l.3 3.5c1.4-1.7 2.8-2.9 4.2-3.6 1.4-.7 2.9-1.1 4.7-1.1.6 0 1.1 0 1.5.1.6 0 .9.4.9 1v1.5c0 .2-.1.3-.2.5-.1.1-.3.2-.5.2h-2.1c-1.7 0-3.3.3-4.6 1-1.3.7-2.6 1.8-3.9 3.4v22.4c0 .6-.3.9-.9.9H262v-.1zm19 0c-.6 0-.9-.3-.9-.9V.9c0-.6.3-.9.9-.9h1.5c.6 0 .9.3.9.9v27.2l13.6-13c.4-.4.9-.6 1.4-.6h2c.5 0 .7.2.7.5 0 .2-.2.5-.6.9l-13.7 13 14.9 14.8c.3.3.5.6.5.8 0 .4-.2.6-.7.6h-2.4c-.5 0-.9-.2-1.2-.5l-14.4-14.5v14.1c0 .6-.3.9-.9.9H281zm36.4.9c-4.5 0-7.9-1.4-10.2-4.1-2.3-2.7-3.4-6.8-3.4-12.2 0-5.1 1.1-9.1 3.4-11.9s5.5-4.2 9.6-4.2c3.4 0 6.1 1.1 7.9 3.2s2.8 5.1 2.8 9.1c0 1.6-.1 2.8-.2 3.7-.1.6-.4.9-1 .9h-19.2c0 4.3.9 7.4 2.6 9.5 1.7 2 4.3 3 7.9 3 2.7 0 5.3-.5 7.8-1.5.5-.2.8-.3 1-.3s.3.1.4.2.2.3.2.5v.9c0 .7-.2 1.1-.6 1.3-2.7 1.2-5.7 1.9-9 1.9zm7-18.5c0-.6.1-1.2.1-2 0-2.9-.7-5.1-2-6.6s-3.3-2.3-5.8-2.3c-6 0-9.1 3.6-9.5 10.9h17.2zm18.5 18c-2.2 0-3.9-.6-5.1-1.9S336 40.5 336 38V17.5h-4.4c-.6 0-.9-.3-.9-.9V16c0-.3.1-.6.2-.7.1-.2.3-.3.7-.3l4.6-.4.4-8c0-.3.1-.6.3-.7.1-.1.3-.2.6-.2h1c.6 0 .9.3.9.9v8h8.2c.6 0 .9.3.9.9v1.2c0 .6-.3.9-.9.9h-8.2v20.3c0 1.7.3 2.8 1 3.5s1.8 1 3.3 1c1.1 0 2.1-.1 2.9-.3.4-.1.7-.2 1-.2s.4-.1.5-.1c.4 0 .6.2.6.7v.9c0 .7-.2 1.1-.6 1.3-1.6.5-3.3.8-5.2.8zm11.7 12.2c-.6 0-.9-.3-.9-.9V15.4c0-.6.3-.9.9-.9h1.1c.6 0 .9.3 1 .9l.2 2.5c1.7-1.5 3.4-2.6 5.1-3.3 1.6-.7 3.3-1 5.1-1 3.7 0 6.6 1.4 8.7 4.2s3.2 6.7 3.2 11.6c0 5-1.1 9-3.3 12-2.2 3-5.2 4.5-9 4.5-3.5 0-6.7-1.4-9.5-4.1v15.1c0 .6-.3.9-.9.9h-1.7v-.1zm11.5-15.1c3.1 0 5.4-1.1 7-3.3s2.4-5.4 2.4-9.7c0-8.6-3-12.9-9.1-12.9-3.1 0-6.3 1.3-9.4 3.9v17.9c1.5 1.4 3.1 2.5 4.5 3.1s3 1 4.6 1zm23.9 2.7c-1.5 0-2.7-.5-3.5-1.4-.9-1-1.3-2.3-1.3-4V.9c0-.6.3-.9.9-.9h1.5c.6 0 .9.3.9.9v38.9c0 .9.2 1.5.5 1.9s.9.5 1.7.5c.2 0 .5 0 .8-.1.3 0 .5-.1.7-.1.5 0 .8.3.8.9v1.2c0 .5-.2.8-.7.9-.8.2-1.5.3-2.3.3zm15.3.5c-2.6 0-4.7-.8-6.2-2.4s-2.3-3.8-2.3-6.4c0-3 .9-5.3 2.8-7s4.5-2.6 7.7-2.6c2.5 0 5.2.5 8.1 1.4v-5.1c0-2.5-.5-4.3-1.6-5.3-1.1-1.1-2.9-1.6-5.4-1.6-2.6 0-5.3.5-8.3 1.5-.3.1-.6.2-.9.2-.4 0-.6-.3-.6-.8v-1c0-.3.1-.6.2-.8s.3-.3.6-.5c3-1.3 6.1-1.9 9.5-1.9s5.8.8 7.4 2.3 2.4 3.8 2.4 6.8v21.6c0 .6-.3.9-.9.9h-1.2c-.6 0-.9-.3-.9-.9l-.2-2.6c-3.2 2.8-6.6 4.2-10.2 4.2zm.5-3.2c1.4 0 3-.3 4.6-.9 1.7-.6 3.3-1.5 5-2.7v-7.6c-2.5-.7-5-1.1-7.4-1.1-5.3 0-7.9 2.2-7.9 6.6 0 1.9.5 3.3 1.4 4.3 1 .9 2.4 1.4 4.3 1.4zm32.6 3.2c-4.4 0-7.7-1.4-10-4.1S425 35 425 29.8s1.2-9.2 3.5-11.9 5.7-4.1 10-4.1c2.1 0 4.1.4 6 1.2.5.2.7.6.7 1.3v.9c0 .5-.2.8-.7.8-.1 0-.3 0-.4-.1-.2 0-.4-.1-.8-.2-1.5-.4-3-.6-4.5-.6-3.6 0-6.2 1-7.8 3-1.6 2-2.4 5.1-2.4 9.5v.7c0 4.2.8 7.3 2.4 9.4 1.6 2 4.2 3 7.7 3 1.5 0 3.1-.3 4.9-.8.4-.1.7-.2.9-.2.2 0 .3-.1.4-.1.5 0 .7.3.7.8v.9c0 .7-.2 1.1-.6 1.3-2.3.7-4.4 1.2-6.6 1.2zm23.8.2c-4.5 0-7.9-1.4-10.2-4.1-2.3-2.7-3.4-6.8-3.4-12.2 0-5.1 1.1-9.1 3.4-11.9s5.5-4.2 9.6-4.2c3.4 0 6.1 1.1 7.9 3.2s2.8 5.1 2.8 9.1c0 1.6-.1 2.8-.2 3.7-.1.6-.4.9-1 .9h-19.2c0 4.3.9 7.4 2.6 9.5 1.7 2 4.3 3 7.9 3 2.7 0 5.3-.5 7.8-1.5.5-.2.8-.3 1-.3s.3.1.4.2c.1.1.2.3.2.5v.9c0 .7-.2 1.1-.6 1.3-2.7 1.2-5.7 1.9-9 1.9zm7-18.5c0-.6.1-1.2.1-2 0-2.9-.7-5.1-2-6.6s-3.3-2.3-5.8-2.3c-6 0-9.1 3.6-9.5 10.9h17.2z"/><circle class="st0" cx="13.3" cy="51.4" r="4.1"/><circle class="st0" cx="37" cy="51.4" r="4.1"/><path class="st0" d="M63.8 13.2H45.5l-7.3 25H11.5L7 23.5H0l7.2 21.9h35.3l8.2-26.6h13.1z"/><path fill="#00a4ca" d="M25.8 17.7l7.9 3.7 7.9-12.7H25.8z"/><path fill="#038db9" d="M41.6 17.7l-7.9 3.7V8.8l7.9-.1z"/><path fill="#34c1da" d="M33.7 4.7l-7.9 4 7.9 3.6 7.9-3.6z"/><path fill="#ef7c22" d="M7.8 17.7l7.9 3.7 8-12.7H7.8z"/><path fill="#e46025" d="M23.7 17.7l-8 3.7V8.7h8z"/><path fill="#f7972c" d="M15.7 4.7l-7.9 4 7.9 3.6 8-3.6z"/><path fill="#1f66af" d="M16.8 32.5l7.9 3.7 7.9-13H16.8z"/><path fill="#13519d" d="M32.6 32.5l-7.9 3.7v-13h7.9z"/><path fill="#187ebb" d="M24.7 19.5l7.9 3.7-7.9 3.9-7.9-3.9z"/></svg>