<svg width="248" height="90" fill="none" xmlns="http://www.w3.org/2000/svg"><path d="M154.123 13.915v61.438h-12.451v-6.266c-1.302 2.197-3.173 3.987-5.452 5.126a17.948 17.948 0 01-7.974 1.872c-3.418.082-6.836-.895-9.684-2.848a18.818 18.818 0 01-6.673-7.812c-1.627-3.662-2.441-7.568-2.36-11.555a26.392 26.392 0 012.36-11.474c1.465-3.092 3.744-5.778 6.592-7.65 2.929-1.87 6.347-2.766 9.765-2.684 2.685 0 5.37.57 7.73 1.79a13.391 13.391 0 015.452 4.964v-20.75l12.695-4.15zM139.15 63.228c1.627-2.116 2.522-5.208 2.522-9.195 0-3.988-.813-6.999-2.522-9.114-1.709-2.116-4.395-3.337-7.161-3.255-2.767-.163-5.452 1.058-7.243 3.173-1.708 2.116-2.604 5.127-2.604 9.033 0 3.987.896 7.08 2.604 9.277 1.709 2.197 4.476 3.417 7.243 3.336 3.092 0 5.533-1.14 7.161-3.255zm59.485-28.562a17.637 17.637 0 016.591 7.649 26.392 26.392 0 012.36 11.474 26.749 26.749 0 01-2.36 11.555 18.81 18.81 0 01-6.673 7.812 17 17 0 01-9.683 2.766 16.004 16.004 0 01-7.975-1.871 12.571 12.571 0 01-5.371-5.127v6.347h-12.531V18.065l12.613-4.15v25.063a12.564 12.564 0 015.37-5.126c2.442-1.302 5.127-1.953 7.894-1.872 3.417-.081 6.835.895 9.765 2.686zm-6.185 28.48c1.709-2.197 2.523-5.289 2.523-9.358 0-3.905-.814-6.916-2.523-9.032-1.709-2.116-4.069-3.174-7.161-3.174-2.766-.162-5.452 1.058-7.242 3.255-1.709 2.197-2.523 5.208-2.523 9.114 0 3.988.814 7.08 2.523 9.196 1.709 2.197 4.394 3.417 7.242 3.255a8.46 8.46 0 007.161-3.255zM225 42.477v16.438c0 2.36.651 4.069 1.791 5.127 1.302 1.139 3.01 1.709 4.801 1.627 1.383 0 2.848-.244 4.15-.57v9.765c-2.36.814-4.801 1.221-7.243 1.14-5.207 0-9.195-1.465-11.962-4.395-2.766-2.929-4.15-7.08-4.15-12.45V23.11L225 19.042v13.996h10.742v9.44H225z" fill="#262A38"/><path d="M86.175 3.743c2.116 2.035 3.5 4.72 3.825 7.65 0 1.22-.326 2.034-1.058 3.58-.732 1.546-9.765 17.17-12.45 21.483-1.546 2.522-2.36 5.533-2.36 8.463 0 3.01.814 5.94 2.36 8.463 2.685 4.312 11.718 20.018 12.45 21.564.733 1.546 1.058 2.278 1.058 3.499-.326 2.93-1.627 5.615-3.743 7.568-2.035 2.115-4.72 3.499-7.568 3.743-1.22 0-2.034-.326-3.5-1.058-1.464-.732-17.413-9.52-21.726-12.206-.326-.163-.651-.407-1.058-.57L31.085 63.31c.488 4.069 2.279 7.975 5.208 10.823.57.57 1.14 1.058 1.79 1.546-.488.244-1.058.488-1.546.814-4.313 2.685-20.018 11.718-21.564 12.45-1.546.733-2.279 1.058-3.58 1.058-2.93-.326-5.615-1.627-7.568-3.743-2.116-2.035-3.5-4.72-3.825-7.65.081-1.22.407-2.44 1.058-3.498.732-1.547 9.765-17.252 12.45-21.565 1.546-2.522 2.36-5.452 2.36-8.463 0-3.01-.814-5.94-2.36-8.463-2.685-4.475-11.8-20.18-12.45-21.727C.407 13.835.08 12.614 0 11.393c.325-2.93 1.627-5.614 3.743-7.649C5.778 1.627 8.463.325 11.393 0a8.266 8.266 0 013.58 1.058c1.302.57 12.776 7.242 18.879 10.823l1.383.813c.488.326.895.57 1.22.733l.652.407L58.834 26.69c-.489-4.883-3.011-9.358-6.917-12.37.488-.243 1.058-.487 1.546-.813 4.313-2.685 20.018-11.8 21.564-12.45C76.085.407 77.306.08 78.607 0a12.457 12.457 0 017.568 3.743zM46.14 50.778l4.639-4.639c.65-.65.65-1.627 0-2.278l-4.639-4.639c-.65-.65-1.627-.65-2.278 0l-4.639 4.639c-.65.65-.65 1.627 0 2.278l4.639 4.639c.57.57 1.627.57 2.278 0z" fill="#FF694A"/><path d="M247.079 71.464l-1.433 4.032h-.532l-1.433-4.022v4.022h-.922V70h1.147l1.474 4.084L246.854 70H248v5.496h-.921v-4.032zm-5.128-.635h-1.505v4.667h-.931V70.83H238V70h3.951v.83z" fill="#262A38"/></svg>