<svg xmlns="http://www.w3.org/2000/svg" viewBox="0 0 1025.39 306.86"><defs><style>.b713727b-011f-4296-9ec1-27eb9a917c7d{fill:#221f20}</style></defs><g id="e2bbe5e4-a32f-408b-a537-dfd607dc3602" data-name="Layer 2"><g id="aa683cff-cde5-4289-b9e0-1b9f2e58eb09" data-name="Layer 1"><g id="bf7297eb-c3fa-4df2-81e3-b666e827be5f" data-name="e62bd491-3891-4e59-83f6-1fc56465cd6c"><g id="a6a543fc-218d-40b9-bc48-a92912d8ec2a" data-name="b63671e8-75e5-4926-aa19-aefc756d4d9c"><g id="b7748270-de51-4499-aff7-f0f10fcb3c3f" data-name="af91a2eb-a3e7-4756-ba29-3c4358921480"><g id="b590c747-4380-4a34-946c-4fbea79902a3" data-name="b928a6c6-8c79-4096-bdb1-2867c515049c"><path id="e0b315a0-e986-441f-a97e-261f5ea4105f" data-name="b05fae3a-1312-4a22-8375-018bdb0d7460" class="b713727b-011f-4296-9ec1-27eb9a917c7d" d="M0 0h425.39v306.86H0z"/><path d="M423.39 0v99.32q-2-5-4.3-9.71A109.29 109.29 0 00381 46.37q-14.37-9.37-34.88-14.7-20.34-5.48-56.23-5.47H232v254.47h58.62q30.93 0 50.75-4.1a118.61 118.61 0 0039.31-16.24q23.75-15.72 37.75-43.75 2.76-5.46 5-11.18v101.46h602V0zM388.5 202.91a74.46 74.46 0 01-26.5 31.76A84.51 84.51 0 01331.08 248q-16.92 3.57-39.48 3.59h-25.8V55.25h25.8q22.9 0 38.28 3.59a98 98 0 0128.88 11.83 73.51 73.51 0 0128.89 32.47q9.74 20.65 9.74 50.06 0 29.73-8.89 49.71zM205.47 26.2h-41.19L60.03 143.27V26.2H26.2v254.47h33.83V178.99l14.87-16.75 92.8 118.43h43.92L100.19 139.85 205.47 26.2z" fill="#f0ae37"/><path id="b2a429be-a085-4b4d-a726-e0b911550574" data-name="e67a144b-368d-4794-bb05-7496379d99bf" class="b713727b-011f-4296-9ec1-27eb9a917c7d" d="M531.66 196.57v53.1h-13.77v-46.58a89.3 89.3 0 00-.59-10.48 21.88 21.88 0 00-2-7.83 10.4 10.4 0 00-4.69-4.54 18 18 0 00-8.17-1.57 23.46 23.46 0 00-10.62 2.78 53.39 53.39 0 00-10.62 7.11v61.11h-13.81v-81.81h13.77v9.08a53.37 53.37 0 0112.16-8.42 28.38 28.38 0 0112.68-2.93q12.06 0 18.9 8t6.76 22.98zm83.05-28.71v81.81h-13.77v-9.08a62 62 0 01-12.08 8.49 28.14 28.14 0 01-12.74 2.86A29.26 29.26 0 01566 250.2a21.06 21.06 0 01-8.2-5.56 26.4 26.4 0 01-5.5-9.6 45.25 45.25 0 01-1.9-14.06v-53.1h13.77v46.58c0 4.35.15 8 .44 10.84a21.52 21.52 0 002.19 7.47 10.75 10.75 0 004.58 4.62 19.25 19.25 0 008.35 1.46 24.16 24.16 0 0010.78-2.85 48.84 48.84 0 0010.49-7v-61.14zm69.14 59.62v-44.9a46.34 46.34 0 00-9.52-3.52 34.57 34.57 0 00-8.64-1.09q-10.47 0-16.48 7.69t-6 22q0 13.64 4.54 20.73t14.86 7.1a31.62 31.62 0 0011-2.12 34.54 34.54 0 0010.24-5.89zm-47 35.3h.74c.93.39 2.29.93 4.1 1.61 2 .71 4.07 1.32 6.15 1.83 2.54.63 4.88 1.15 7 1.54a40 40 0 007 .59 29.91 29.91 0 0010.81-1.68 16.29 16.29 0 007-4.69 18.26 18.26 0 003.29-7 39.54 39.54 0 001-9v-7.18A44 44 0 01673 246a34.48 34.48 0 01-13.4 2.27q-14 0-22.27-10.4T629.09 208a52.2 52.2 0 012.85-18 41.42 41.42 0 017.69-13.41 31.7 31.7 0 0110.92-8.13 31.36 31.36 0 0113-2.85 34.76 34.76 0 0111 1.54 43.67 43.67 0 019.37 4.24l.81-3.51h13v72.47q0 20.81-9.08 30.54t-27.87 9.76a84.43 84.43 0 01-12.3-1 89 89 0 01-11.65-2.56zm129.94-35.3v-44.9a46.43 46.43 0 00-9.53-3.52 34.57 34.57 0 00-8.64-1.09q-10.47 0-16.48 7.69t-6 22q0 13.64 4.54 20.73t14.86 7.1a31.62 31.62 0 0011-2.12 34.7 34.7 0 0010.23-5.89zm-47 35.3h.74c.93.39 2.29.93 4.1 1.61 2 .71 4.07 1.32 6.15 1.83 2.54.63 4.88 1.15 7 1.54a40 40 0 007 .59 30.22 30.22 0 0010.78-1.68 16.29 16.29 0 007-4.69 18.26 18.26 0 003.29-7 38.93 38.93 0 001-9v-7.18a43.55 43.55 0 01-10.92 7.2 34.48 34.48 0 01-13.4 2.27q-14 0-22.27-10.4T712 208a52.2 52.2 0 012.85-18 41.42 41.42 0 017.69-13.41 31.84 31.84 0 0110.86-8.17 31.36 31.36 0 0113-2.85 34.76 34.76 0 0111 1.54 43.74 43.74 0 019.38 4.24l.8-3.51h13v72.51q0 20.81-9.08 30.54t-27.8 9.76a84.43 84.43 0 01-12.3-1 89 89 0 01-11.65-2.56zM836 251.57q-19.56 0-30.4-11t-10.78-31.37q0-20 10.47-31.79t27.39-11.86a38 38 0 0113.48 2.2 26.62 26.62 0 0110.23 6.9 31.66 31.66 0 016.74 11.5 50.7 50.7 0 012.35 16.55v7.5h-56.67q0 14.28 7.17 21.83t19.85 7.54a38.9 38.9 0 008.86-1 43.47 43.47 0 007.91-2.64 62.24 62.24 0 006.3-3.22 41.75 41.75 0 004.25-3h.85v15c-1.61.63-3.62 1.44-6 2.42a58.82 58.82 0 01-6.44 2.19c-2.69.73-5.13 1.3-7.33 1.69a48.09 48.09 0 01-8.23.56zm-27.17-51.9h43.28a37.93 37.93 0 00-1.32-9.6 19.66 19.66 0 00-3.37-6.81 15.3 15.3 0 00-6.22-4.69 23.49 23.49 0 00-9.3-1.61 23.15 23.15 0 00-9.38 1.69 21.63 21.63 0 00-7 4.76 22.62 22.62 0 00-4.68 7.17 30.17 30.17 0 00-2 9.09zm95.36 51.63q-11.28 0-17.58-6.37t-6.3-20.26v-45.39H871v-11.42h9.3v-23.51h13.77v23.51h25.33v11.42h-25.34v38.92c0 4.15.07 7.34.22 9.59a16.3 16.3 0 001.68 6.3 8.24 8.24 0 004 3.88 19 19 0 007.55 1.25 22.56 22.56 0 006.52-1 43.37 43.37 0 004.54-1.68h.8v12.36a71.14 71.14 0 01-7.88 1.77 51.38 51.38 0 01-7.32.61zm47.53.37a52 52 0 01-15.38-2.2 70.12 70.12 0 01-11.79-4.69v-15.47h.73c1.17.93 2.53 1.95 4.1 3.07a43.88 43.88 0 006.37 3.52 59.75 59.75 0 007.7 2.86 31 31 0 008.78 1.24 37.46 37.46 0 007-.73 17.81 17.81 0 005.56-2 9.42 9.42 0 004.84-9.3c0-3.27-.9-5.73-2.71-7.4s-5-3.06-9.45-4.17c-1.76-.44-4.06-1-6.89-1.54s-5.45-1.22-7.83-1.9q-9.36-2.7-13.59-8.29a23.93 23.93 0 014.1-31.79q8.34-7 22.2-7a57.47 57.47 0 0113.69 1.69 47.48 47.48 0 0111.58 4.24v14.73H980a42.38 42.38 0 00-11.79-6.6 36.62 36.62 0 00-13-2.41 21.8 21.8 0 00-11.5 2.85A9.45 9.45 0 00939 189c0 3.41.93 6 2.78 7.69s4.83 3 8.94 4.1q3.06.8 6.81 1.61c2.54.49 5.2 1.07 8 1.76q9.08 2.25 13.62 7.54t4.62 14.36a24.48 24.48 0 01-2.13 10 22 22 0 01-6.07 8.06 31.61 31.61 0 01-10 5.56 43.22 43.22 0 01-13.87 2z"/></g></g></g></g></g></g></svg>