<svg xmlns="http://www.w3.org/2000/svg" width="147" height="22" fill="none"><path fill-rule="evenodd" clip-rule="evenodd" d="M11.38.78c.85.348 1.592.835 2.208 1.448.616.614 1.083 1.343 1.433 2.179.35.835.52 1.766.52 2.75 0 .983-.17 1.903-.51 2.738a6.433 6.433 0 01-1.432 2.19 6.486 6.486 0 01-2.198 1.437c-.838.339-1.773.508-2.76.508H2.803v7.297H0V.26h8.599c.998 0 1.932.18 2.781.518zm1.051 8.09a4.46 4.46 0 00.319-1.693 4.4 4.4 0 00-.33-1.713 4.192 4.192 0 00-.88-1.375 4.168 4.168 0 00-1.328-.909 4.35 4.35 0 00-1.677-.328H2.803v8.598h5.785a4.25 4.25 0 001.656-.328c.51-.222.945-.518 1.317-.899.371-.38.658-.835.87-1.354z" fill="#fff"/><path d="M23.768 5.591a7.322 7.322 0 00-1.709.645 6.11 6.11 0 00-1.39.994l-.128.127-.127-1.988H17.94v15.958h2.76v-8.059c0-.877.128-1.67.383-2.337.255-.655.605-1.205 1.04-1.639a4.3 4.3 0 011.592-.983 6.085 6.085 0 012.102-.35h2.05V5.37h-2.113c-.701 0-1.37.074-1.986.222z" fill="#fff"/><path fill-rule="evenodd" clip-rule="evenodd" d="M40.754 5.623a8.727 8.727 0 012.739 1.776 7.996 7.996 0 011.815 2.665 8.119 8.119 0 01.669 3.279 8.132 8.132 0 01-.67 3.288 8.175 8.175 0 01-1.825 2.665 8.728 8.728 0 01-2.739 1.777 8.836 8.836 0 01-3.397.655 8.73 8.73 0 01-3.376-.655 8.386 8.386 0 01-2.728-1.777 8.644 8.644 0 01-1.826-2.665 8.137 8.137 0 01-.669-3.288c0-1.153.234-2.264.67-3.279A8.178 8.178 0 0131.241 7.4a8.678 8.678 0 012.728-1.776c2.081-.867 4.693-.867 6.784 0zm2.028 10.025c.297-.709.456-1.48.456-2.306 0-.814-.148-1.586-.456-2.284a5.453 5.453 0 00-1.253-1.84 5.902 5.902 0 00-4.15-1.67c-.808 0-1.583.147-2.283.444a5.654 5.654 0 00-1.858 1.216 5.722 5.722 0 00-1.253 1.84 5.904 5.904 0 00-.456 2.294c0 .825.148 1.597.456 2.306a5.896 5.896 0 001.253 1.84c.52.518 1.147.93 1.858 1.216 1.412.582 3.163.582 4.575 0a5.825 5.825 0 001.858-1.216 5.894 5.894 0 001.253-1.84z" fill="#fff"/><path d="M54.756 17.287L49.618 5.369h-2.994l6.975 15.958h2.335L62.91 5.369h-2.994l-5.16 11.918z" fill="#fff"/><path fill-rule="evenodd" clip-rule="evenodd" d="M75.606 5.623a8.323 8.323 0 012.738 1.776 8.731 8.731 0 011.837 2.665 8.118 8.118 0 01.668 3.278c0 .16-.01.286-.02.381l-.085.709H66.412a5.54 5.54 0 00.552 1.639 5.65 5.65 0 001.338 1.681 6.023 6.023 0 001.837 1.079 6.2 6.2 0 003.683.18 5.68 5.68 0 001.401-.582c.436-.243.829-.55 1.168-.899.34-.338.637-.74.881-1.163l.149-.264h2.972l-.329.74a8.307 8.307 0 01-1.253 1.956 8.322 8.322 0 01-1.783 1.544 8.888 8.888 0 01-4.809 1.385 8.742 8.742 0 01-3.386-.655 8.697 8.697 0 01-2.728-1.787 8.164 8.164 0 01-1.826-2.665 8.12 8.12 0 01-.67-3.278 8.302 8.302 0 012.496-5.944 8.671 8.671 0 012.727-1.776c2.071-.857 4.66-.867 6.774 0zm-9.162 6.44h11.507a5.754 5.754 0 00-.52-1.47 5.887 5.887 0 00-1.263-1.65 5.72 5.72 0 00-1.773-1.089c-1.337-.529-3.004-.518-4.341 0a5.893 5.893 0 00-1.794 1.09 5.762 5.762 0 00-1.285 1.649 5.393 5.393 0 00-.53 1.47z" fill="#fff"/><path d="M87.93 9.123A5.977 5.977 0 0189.8 7.96c1.21-.476 2.611-.529 3.832-.201.51.137.998.338 1.433.603.446.264.85.581 1.2.951.361.37.658.793.902 1.248l.149.286h2.866l-.286-.72a8.08 8.08 0 00-3.047-3.732 8.653 8.653 0 00-2.262-1.047c-1.921-.571-4.161-.476-5.987.285a8.513 8.513 0 00-2.717 1.777 8.343 8.343 0 00-1.826 2.665 8.301 8.301 0 00-.669 3.278c0 1.153.223 2.263.669 3.278a8.313 8.313 0 001.815 2.665 8.589 8.589 0 002.728 1.787 8.733 8.733 0 003.376.656c.903 0 1.783-.127 2.6-.37a8.835 8.835 0 002.262-1.047 7.76 7.76 0 001.805-1.629 7.867 7.867 0 001.231-2.094l.287-.719h-2.856l-.149.275a5.732 5.732 0 01-.912 1.248 5.48 5.48 0 01-1.21.942 6.413 6.413 0 01-1.434.602 6.166 6.166 0 01-3.8-.2 5.762 5.762 0 01-1.869-1.153 5.461 5.461 0 01-1.295-1.83c-.318-.708-.488-1.512-.488-2.411 0-.878.16-1.692.478-2.4.34-.72.775-1.333 1.305-1.83zm20.829 9.793a2.308 2.308 0 01-.935-.561c-.276-.275-.498-.656-.679-1.142-.18-.508-.276-1.174-.276-1.978V7.94h5.658V5.37h-5.658V.906l-2.346.021-.404 4.347-2.759.254v2.41h2.749v7.297c0 1.143.138 2.126.424 2.93.287.825.701 1.49 1.211 2.009.52.518 1.146.888 1.847 1.11a7.12 7.12 0 002.219.328h3.333l.021-2.517h-3.227c-.393 0-.796-.063-1.178-.18zm18.991-5.203c0 1.85-.414 3.236-1.221 4.124-.817.878-1.985 1.311-3.588 1.311-1.624 0-2.813-.433-3.609-1.322-.807-.899-1.21-2.273-1.21-4.103V5.37h-2.76v8.386c0 1.3.169 2.453.52 3.437.35 1.004.86 1.85 1.518 2.517.658.677 1.475 1.184 2.421 1.523.923.327 1.974.497 3.12.497 1.147 0 2.198-.17 3.122-.497a6.375 6.375 0 002.42-1.523c.658-.667 1.168-1.523 1.518-2.517.339-.984.52-2.136.52-3.437V5.369h-2.76v8.344h-.011zm18.663 1.279a3.76 3.76 0 00-.828-1.216 4.51 4.51 0 00-1.178-.825 8.16 8.16 0 00-1.338-.518 10.555 10.555 0 00-1.391-.317 33.716 33.716 0 00-1.337-.19 17.942 17.942 0 01-2.018-.276c-.551-.116-1.008-.253-1.369-.433-.318-.148-.552-.338-.7-.56-.139-.201-.212-.455-.212-.772 0-.286.063-.582.18-.868.117-.275.318-.518.584-.74.286-.233.669-.423 1.156-.57.5-.149 1.126-.234 1.858-.234.51 0 .988.064 1.413.18.413.116.774.275 1.072.476.286.19.498.423.669.687.158.265.243.55.254.868l.021.507h2.718v-.529c0-.676-.149-1.322-.446-1.903a4.695 4.695 0 00-1.253-1.502c-.53-.412-1.168-.73-1.911-.962a8.475 8.475 0 00-2.452-.338c-1.178 0-2.197.137-3.025.401-.838.275-1.539.645-2.07 1.1a4.07 4.07 0 00-1.168 1.618 4.901 4.901 0 00-.35 1.809c0 .592.095 1.12.297 1.565.191.444.456.835.785 1.152.319.317.701.582 1.126.783.393.19.828.349 1.274.476.435.127.891.222 1.348.285.446.064.871.116 1.295.17.732.084 1.402.2 1.985.327a6.195 6.195 0 011.444.497c.361.18.637.402.828.666.17.244.255.53.255.9 0 .729-.34 1.3-1.03 1.744-.754.487-1.943.74-3.524.74a4.69 4.69 0 01-1.508-.232 4.61 4.61 0 01-1.231-.613 2.836 2.836 0 01-.797-.836 1.835 1.835 0 01-.286-.899l-.011-.518h-2.728v.529c0 .634.159 1.269.488 1.882a5.4 5.4 0 001.338 1.629 6.897 6.897 0 002.038 1.142c.786.285 1.677.433 2.644.433 1.136 0 2.155-.105 3.046-.327.913-.223 1.688-.54 2.314-.963a4.598 4.598 0 001.508-1.628c.35-.645.52-1.386.52-2.19a3.56 3.56 0 00-.297-1.607z" fill="#fff"/></svg>