<svg width="200" height="200" fill="none" xmlns="http://www.w3.org/2000/svg"><path d="M0 95.082C0 50.26 0 27.849 13.924 13.924 27.85 0 50.26 0 95.082 0h9.836c44.822 0 67.233 0 81.158 13.924C200 27.85 200 50.26 200 95.082v9.836c0 44.822 0 67.233-13.924 81.158C172.151 200 149.74 200 104.918 200h-9.836c-44.822 0-67.233 0-81.158-13.924C0 172.151 0 149.74 0 104.918v-9.836z" fill="#00D9ED"/><path d="M76.231 33.032c11.602-6.685 17.403-10.028 23.773-10.028 6.37 0 12.171 3.343 23.774 10.028l22.453 12.939c11.602 6.685 17.403 10.028 20.588 15.533 3.185 5.506 3.185 12.191 3.185 25.562v25.877c0 13.37 0 20.056-3.185 25.561-3.185 5.506-8.986 8.849-20.588 15.534l-22.453 12.938c-11.603 6.686-17.404 10.028-23.774 10.028-6.37 0-12.17-3.342-23.773-10.028l-22.453-12.938c-11.602-6.685-17.404-10.028-20.589-15.534-3.185-5.505-3.185-12.191-3.185-25.561V87.066c0-13.37 0-20.056 3.185-25.562 3.185-5.505 8.986-8.848 20.589-15.533L76.23 33.032z" fill="#07F"/><path d="M70.996 73.008a3 3 0 00-3 3V86.6a3 3 0 003 3h17.703a3 3 0 013 3v41.408a3 3 0 003 3h10.593a3 3 0 003-3V92.6a3 3 0 013-3h17.704a3 3 0 003-3V76.008a3 3 0 00-3-3h-58z" fill="#fff"/></svg>